<svg version="1.0" xmlns="http://www.w3.org/2000/svg"
 width="32" height="32" viewBox="0 0 227.92319169033036 203" class="css-1j8o68f"><defs id="SvgjsDefs1001"></defs><g id="SvgjsG1007" featurekey="nRdZyp-0" transform="matrix(1.5500011825570545,0,0,1.5500011825570545,38.7545558010527,-15.500103473742275)" fill="#f8b500"><rect xmlns="http://www.w3.org/2000/svg" x="25.249" y="20.252" transform="matrix(0.7071 0.7071 -0.7071 0.7071 46.463 -22.1737)" fill="none" stroke="#f8b500" stroke-width="2" stroke-linecap="round" stroke-linejoin="round" stroke-miterlimit="10" width="49.499" height="49.497"></rect><path xmlns="http://www.w3.org/2000/svg" stroke="#f8b500" stroke-width="2" stroke-linecap="round" stroke-linejoin="round" stroke-miterlimit="10" d="M49.999,69.395  l24.394-24.392L50,20.608L25.608,45.002L49.999,69.395z M63.785,45.002L49.999,58.787L36.214,45.002L50,31.215L63.785,45.002z"></path><rect xmlns="http://www.w3.org/2000/svg" x="47.754" y="42.754" transform="matrix(-0.707 0.7072 -0.7072 -0.707 117.1804 41.4576)" stroke="#f8b500" stroke-width="2" stroke-linecap="round" stroke-linejoin="round" stroke-miterlimit="10" width="4.496" height="4.497"></rect><polygon xmlns="http://www.w3.org/2000/svg" stroke="#f8b500" stroke-width="2" stroke-linecap="round" stroke-linejoin="round" stroke-miterlimit="10" points="  49.999,80 20,50.004 15.002,55 49.999,90 85,55 80,50 "></polygon></g><g id="SvgjsG1008" featurekey="Q4qmbg-0" transform="matrix(3.683944516669163,0,0,3.683944516669163,-0.9719333558790701,129.17706680924525)" fill="#111111"><path d="M2.1777 13.6328 c0.63477 -2.7246 1.2695 -5.459 1.9043 -8.1836 l5.8594 0 c3.5059 0 5.957 1.8164 4.3457 5.791 c-0.41016 0.98633 -0.95703 1.7773 -1.582 2.3926 l0.88867 0 c-1.5332 1.4746 -3.6523 1.9727 -6.0938 1.9727 l-1.0156 4.3848 l-4.8633 0 l1.4648 -6.3574 l-0.9082 0 z M8.1055 9.072 c-0.20508 0.95703 -0.43945 1.9336 -0.6543 2.9297 c2.4316 -0.12695 3.3398 -2.9297 0.6543 -2.9297 z M15.54539287109375 13.6328 l-0.89844 0 l1.875 -8.1836 l4.9023 0 l-1.8945 8.1836 l0.9082 0 l-0.64453 2.666 l5.4199 0 l-0.83984 3.6914 l-10.303 0 z M27.3992607421875 13.6328 l-1.123 0 l4.5898 -8.1934 l4.873 0 l0.79102 8.1934 l1.0938 0 l0.61523 6.3574 l-5.0293 0 l-0.20508 -2.7441 l-2.7832 0 c-0.48828 0.9082 -0.94727 1.8262 -1.4355 2.7441 l-4.9414 0 z M32.8777607421875 13.837900000000001 l0 -0.20508 l-1.0645 0 l0.019531 -3.2422 l-1.3086 3.2422 l1.084 0 l-0.078125 0.20508 l1.3477 0 z M45.62054736328125 13.3594 l-1.4844 6.6797 l-4.9512 0 l1.5234 -6.6797 l-0.88867 0 l0.98633 -4.2773 l-3.9063 0 l0.85938 -3.7012 l12.676 0 l-0.83008 3.7012 l-3.8965 0 l-0.95703 4.2773 l0.86914 0 z M57.786883984375 13.3594 l-2.793 2.959 l5.8594 0 l-0.83984 3.7207 l-12.021 0 l0.73242 -3.2227 l3.252 -3.457 l-0.87891 0 l4.043 -4.2773 l-5.2344 0 l0.84961 -3.7012 l11.377 0 l-0.74219 3.2422 l-4.4922 4.7363 l0.88867 0 z"></path></g></svg>
