<?xml version="1.0" standalone="no"?>
<!DOCTYPE svg PUBLIC "-//W3C//DTD SVG 20010904//EN"
 "http://www.w3.org/TR/2001/REC-SVG-20010904/DTD/svg10.dtd">
<svg version="1.0" xmlns="http://www.w3.org/2000/svg"
 width="32" height="32" viewBox="0 0 1024.000000 219.000000"
>
<g transform="translate(0.000000,219.000000) scale(0.100000,-0.100000)"
fill="#000000" stroke="none">
<path d="M217 603 c-3 -10 -17 -70 -32 -133 -14 -63 -28 -123 -31 -132 -4 -12
0 -18 10 -18 9 0 16 -4 16 -10 0 -10 -37 -173 -46 -202 -5 -16 4 -18 84 -18
l90 0 19 78 19 77 61 7 c34 4 79 16 101 27 42 22 62 41 41 41 -8 0 -7 6 4 18
27 30 57 105 57 145 0 50 -23 93 -63 114 -25 14 -63 18 -179 21 -135 4 -146 2
-151 -15z m193 -131 c29 -23 20 -56 -20 -77 -44 -23 -49 -20 -38 28 18 78 20
80 58 49z"/>
<path d="M675 608 c-5 -14 -65 -277 -65 -284 0 -2 7 -4 15 -4 19 0 20 11 -10
-115 -14 -59 -24 -109 -23 -111 3 -3 313 -6 455 -5 l83 1 25 50 c25 50 26 50
74 50 l49 0 7 -50 7 -50 90 0 91 0 -7 73 c-13 139 -17 157 -36 157 -19 0 -22
14 -35 160 -3 36 -8 82 -11 103 l-6 37 -88 0 -87 0 -82 -146 c-44 -80 -81
-147 -81 -150 0 -2 7 -4 15 -4 8 0 15 -2 15 -5 0 -9 -81 -155 -86 -155 -2 0
-1 14 3 30 l6 30 -98 0 -97 0 6 36 c4 19 10 42 13 50 3 8 -1 14 -11 14 -21 0
-21 -2 14 145 17 69 30 133 30 141 0 19 -168 21 -175 2z m588 -291 c20 -4 19
-4 -3 -5 -14 0 -35 3 -46 6 l-21 7 21 55 21 55 3 -57 c3 -49 6 -57 25 -61z"/>
<path d="M1441 563 c-6 -31 -11 -60 -11 -65 0 -4 29 -8 63 -8 35 0 66 -2 69
-5 3 -3 -3 -38 -12 -78 -14 -59 -15 -73 -4 -75 18 -4 18 -1 -11 -130 -14 -61
-25 -113 -25 -116 0 -3 41 -6 90 -6 50 0 90 3 90 6 0 3 11 55 25 116 29 129
29 128 11 128 -11 0 -11 13 3 78 l17 77 72 3 71 3 10 37 c5 20 12 49 15 65 l6
27 -233 0 -234 0 -12 -57z"/>
<path d="M1918 558 l-13 -63 93 -5 93 -5 -70 -77 c-39 -42 -66 -78 -60 -80 7
-2 -14 -32 -45 -66 -47 -49 -60 -72 -70 -116 -7 -31 -11 -58 -8 -61 3 -3 101
-5 218 -5 l213 0 10 38 c5 20 12 52 16 70 l7 32 -108 0 -108 0 54 55 c40 41
50 55 36 55 -13 0 6 26 66 88 70 73 86 95 91 129 4 23 10 48 13 57 5 14 -16
16 -204 16 l-210 0 -14 -62z"/>
</g>
</svg>
